# xmcd CD database file
#
# Track frame offsets:
#	150
#	18243
#	30236
#	40691
#	52162
#	63263
#	73881
#	84122
#	94285
#	103336
#	116043
#	127476
#	138769
#	148178
#	157146
#
# Disc length: 2233 seconds
#
# Revision: 0
# Processed by: cddbd v1.5.2PL0 Copyright (c) Steve Scherf et al.
# Submitted via: CDex 1.70beta2
#
DISCID=da08b70f
DTITLE=Rick Nelson - Garden Party [CD1)
DYEAR=2004
DGENRE=Country
TTITLE0=Garden Party
TTITLE1=Fools Rush In
TTITLE2=Hello, Mary Lou
TTITLE3=Poor Little Fool
TTITLE4=Don't Leave Me This Way
TTITLE5=Travellin' Man
TTITLE6=Lonesome Town
TTITLE7=Never Be Anyone Else But You
TTITLE8=It's Late
TTITLE9=It's Up To You
TTITLE10=Teenage Idol
TTITLE11=Sweeter Than You
TTITLE12=Just A Little Too Much
TTITLE13=Got A Feeling
TTITLE14=Young World
EXTD=YEAR: 2004
EXTT0=
EXTT1=
EXTT2=
EXTT3=
EXTT4=
EXTT5=
EXTT6=
EXTT7=
EXTT8=
EXTT9=
EXTT10=
EXTT11=
EXTT12=
EXTT13=
EXTT14=
PLAYORDER=
